<svg aria-hidden="true" style="position: absolute; width: 0; height: 0; overflow: hidden;" version="1.1" xmlns="http://www.w3.org/2000/svg" xmlns:xlink="http://www.w3.org/1999/xlink">
<defs>

<symbol id="icon-update" viewBox="0 0 32 32">
    <path  d="M15.171 4l-2.477-2.475 1.524-1.525 5.074 5.071-5.074 5.071-1.524-1.525 2.461-2.46c-6.336 0.24-11.4 5.451-11.4 11.839 0 6.541 5.309 11.848 11.856 11.848s11.856-5.307 11.856-11.848v-1.078h2.156v1.078c0 7.733-6.276 14.004-14.012 14.004s-14.012-6.27-14.012-14.004c0-7.586 6.038-13.764 13.571-13.997z"></path>
</symbol>

<symbol id="icon-asc" viewBox="0 0 32 32">
    <path  d="M6.088 28.358l-4.579-4.579-1.508 1.508 6.4 6.4c0.2 0.2 0.471 0.312 0.754 0.312s0.554-0.112 0.754-0.312l6.4-6.4-1.508-1.508-4.579 4.579v-28.358h-2.133v28.358zM24.221 2.133c-1.767 0-3.2 1.433-3.2 3.2v3.2h6.4v-3.2c0-1.767-1.433-3.2-3.2-3.2zM27.421 10.667v4.267h2.133v-9.6c0-2.946-2.388-5.333-5.333-5.333s-5.333 2.388-5.333 5.333v9.6h2.133v-4.267h6.4zM18.888 17.067h6.4c2.356 0 4.267 1.91 4.267 4.267 0 1.274-0.559 2.418-1.444 3.2 0.886 0.782 1.444 1.926 1.444 3.2 0 2.356-1.91 4.267-4.267 4.267h-6.4v-14.933zM25.288 23.467c1.178 0 2.133-0.955 2.133-2.133s-0.955-2.133-2.133-2.133h-4.267v4.267h4.267zM21.021 25.6h4.267c1.178 0 2.133 0.955 2.133 2.133s-0.955 2.133-2.133 2.133h-4.267v-4.267z"></path>
</symbol>
<symbol id="icon-desc" viewBox="0 0 32 32">
    <path  d="M6.4 0.312l-6.4 6.4 1.508 1.508 4.579-4.579v28.358h2.133v-28.358l4.579 4.579 1.508-1.508-6.4-6.4c-0.417-0.417-1.092-0.417-1.508 0zM24.221 2.133c-1.767 0-3.2 1.433-3.2 3.2v3.2h6.4v-3.2c0-1.767-1.433-3.2-3.2-3.2zM27.421 10.667v4.267h2.133v-9.6c0-2.946-2.388-5.333-5.333-5.333s-5.333 2.388-5.333 5.333v9.6h2.133v-4.267h6.4zM18.888 17.067h6.4c2.356 0 4.267 1.91 4.267 4.267 0 1.274-0.559 2.418-1.444 3.2 0.886 0.782 1.444 1.926 1.444 3.2 0 2.356-1.91 4.267-4.267 4.267h-6.4v-14.933zM25.288 23.467c1.178 0 2.133-0.955 2.133-2.133s-0.955-2.133-2.133-2.133h-4.267v4.267h4.267zM21.021 25.6h4.267c1.178 0 2.133 0.955 2.133 2.133s-0.955 2.133-2.133 2.133h-4.267v-4.267z"></path>
</symbol>

<symbol id="icon-search" viewBox="0 0 32 32">
    <path  d="M30.978 29.147l-7.616-7.921c1.958-2.328 3.031-5.257 3.031-8.306 0-7.124-5.796-12.92-12.92-12.92s-12.92 5.796-12.92 12.92c0 7.124 5.796 12.92 12.92 12.92 2.674 0 5.223-0.807 7.402-2.338l7.674 7.981c0.321 0.333 0.752 0.517 1.214 0.517 0.438 0 0.853-0.167 1.168-0.47 0.67-0.644 0.691-1.713 0.047-2.383zM13.473 3.37c5.266 0 9.55 4.284 9.55 9.55s-4.284 9.55-9.55 9.55-9.55-4.284-9.55-9.55c0-5.266 4.284-9.55 9.55-9.55z"></path>
</symbol>
<symbol id="icon-arrow-left" viewBox="0 0 19 32">
    <path  d="M1.136 17.584l13.759 13.759c0.875 0.876 2.294 0.876 3.169 0s0.875-2.294 0-3.169l-12.175-12.175 12.175-12.174c0.875-0.875 0.875-2.294 0-3.169s-2.294-0.875-3.169 0l-13.76 13.759c-0.437 0.438-0.656 1.011-0.656 1.584s0.219 1.147 0.656 1.584z"></path>
</symbol>
<symbol id="icon-heart-fill" viewBox="0 0 32 32">
    <path  d="M8.609 1.6c-4.755 0-8.609 3.854-8.609 8.609 0 2.283 0.907 4.473 2.522 6.088l12.724 12.724c0.417 0.416 1.092 0.416 1.508 0l12.724-12.724c1.615-1.615 2.522-3.804 2.522-6.088 0-4.755-3.854-8.609-8.609-8.609-2.283 0-4.473 0.907-6.088 2.522l-1.303 1.303-1.303-1.303c-1.615-1.615-3.804-2.522-6.088-2.522z"></path>
</symbol>
<symbol id="icon-heart" viewBox="0 0 32 32">
    <path  d="M8.609 3.733c-3.576 0-6.476 2.899-6.476 6.476 0 1.717 0.682 3.365 1.897 4.579l11.97 11.97 11.97-11.97c1.214-1.214 1.897-2.862 1.897-4.579 0-3.576-2.899-6.476-6.476-6.476-1.717 0-3.365 0.682-4.579 1.897l-2.058 2.058c-0.416 0.417-1.092 0.417-1.508 0l-2.058-2.058c-1.214-1.214-2.862-1.897-4.579-1.897zM0 10.209c0-4.755 3.854-8.609 8.609-8.609 2.283 0 4.473 0.907 6.088 2.522l1.303 1.303 1.303-1.303c1.614-1.615 3.804-2.522 6.088-2.522 4.755 0 8.609 3.854 8.609 8.609 0 2.283-0.907 4.473-2.522 6.088l-12.724 12.724c-0.416 0.416-1.092 0.416-1.508 0l-12.724-12.724c-1.615-1.615-2.522-3.804-2.522-6.088z"></path>
</symbol>
<symbol id="icon-cross" viewBox="0 0 32 32">
    <path  d="M14.323 16l-13.384-13.384 1.676-1.676 13.384 13.384 13.384-13.384 1.676 1.676-13.384 13.384 13.384 13.384-1.676 1.676-13.384-13.384-13.384 13.384-1.676-1.676 13.384-13.384z"></path>
</symbol>
<symbol id="icon-like" viewBox="0 0 32 32">
    <path  d="M0 16c0-8.837 7.163-16 16-16s16 7.163 16 16c0 8.837-7.163 16-16 16s-16-7.163-16-16zM16 2.133c-7.658 0-13.867 6.208-13.867 13.867s6.208 13.867 13.867 13.867c7.658 0 13.867-6.208 13.867-13.867s-6.208-13.867-13.867-13.867zM10.667 12.8h-2.133v-2.133h2.133v2.133zM23.467 12.8h-2.133v-2.133h2.133v2.133zM9.813 17.707l0.64 0.853c2.773 3.698 8.32 3.698 11.093 0l0.64-0.853 1.707 1.28-0.64 0.853c-3.627 4.836-10.88 4.836-14.507 0l-0.64-0.853 1.707-1.28z"></path>
</symbol>
<symbol id="icon-dislike" viewBox="0 0 32 32">
    <path  d="M0 16c0-8.837 7.163-16 16-16s16 7.163 16 16c0 8.837-7.163 16-16 16s-16-7.163-16-16zM16 2.133c-7.658 0-13.867 6.208-13.867 13.867s6.208 13.867 13.867 13.867c7.658 0 13.867-6.208 13.867-13.867s-6.208-13.867-13.867-13.867zM10.667 12.8h-2.133v-2.133h2.133v2.133zM23.467 12.8h-2.133v-2.133h2.133v2.133zM8.107 21.547l0.64-0.853c3.627-4.836 10.88-4.836 14.507 0l0.64 0.853-1.707 1.28-0.64-0.853c-2.773-3.698-8.32-3.698-11.093 0l-0.64 0.853-1.707-1.28z"></path>
</symbol>
<symbol id="icon-favorite" viewBox="0 0 37 32">
    <path  d="M9.934 2.462c-4.127 0-7.472 3.345-7.472 7.472 0 1.982 0.787 3.882 2.189 5.284l13.811 13.811 13.811-13.811c1.401-1.401 2.189-3.302 2.189-5.284 0-4.127-3.345-7.472-7.472-7.472-1.982 0-3.882 0.787-5.284 2.189l-2.374 2.374c-0.481 0.481-1.26 0.481-1.741 0l-2.374-2.374c-1.401-1.401-3.302-2.189-5.284-2.189zM0 9.934c0-5.486 4.447-9.934 9.934-9.934 2.634 0 5.161 1.047 7.024 2.909l1.504 1.504 1.504-1.504c1.863-1.863 4.39-2.909 7.024-2.909 5.486 0 9.934 4.447 9.934 9.934 0 2.634-1.047 5.161-2.91 7.024l-14.682 14.682c-0.481 0.481-1.26 0.481-1.741 0l-14.682-14.682c-1.863-1.863-2.909-4.39-2.909-7.024z"></path>
</symbol>

<symbol id="icon-favorite-filled" viewBox="0 0 32 32">
    <path  d="M8.609 2.133c-4.755 0-8.609 3.854-8.609 8.609 0 2.283 0.907 4.473 2.522 6.088l12.724 12.724c0.417 0.417 1.092 0.417 1.508 0l12.724-12.724c1.615-1.614 2.522-3.804 2.522-6.088 0-4.755-3.854-8.609-8.609-8.609-2.283 0-4.473 0.907-6.088 2.522l-1.303 1.303-1.303-1.303c-1.614-1.615-3.804-2.522-6.088-2.522z"></path></symbol>
</symbol>



</defs>
</svg>
